<svg width="56" height="56" viewBox="0 0 56 56" fill="none" xmlns="http://www.w3.org/2000/svg">
<path fill-rule="evenodd" clip-rule="evenodd" d="M8.06186 18.1121H47.9354C48.7197 18.1121 49.0717 17.7248 49.0717 17.0276C49.0717 12.8956 42.4304 5.60001 27.9985 5.60001C13.4316 5.60001 6.92556 12.8956 6.92556 17.0276C6.92556 17.7248 7.27726 18.1121 8.06186 18.1121ZM49.0717 43.9678C49.0717 43.3338 48.7197 42.9718 47.9354 42.9718H8.06184C7.27724 42.9718 6.92554 43.3338 6.92554 43.9678C6.92554 45.0803 7.99423 46.6324 10.1041 47.7705C13.6208 49.6722 19.6533 50.2156 27.9985 50.2156C36.3439 50.2156 42.3761 49.6722 45.893 47.7705C48.003 46.6324 49.0717 45.0803 49.0717 43.9678Z" fill="#FF8732"/>
<path d="M17.2883 28.306C15.0971 28.306 13.9475 27.0409 13.9475 25.4497V21.0546C13.9475 20.272 14.4209 19.6459 15.2864 19.6459C16.1519 19.6459 16.6389 20.272 16.6389 21.0546V25.3062C16.6389 25.6194 16.8013 25.9845 17.2883 25.9845C17.7752 25.9845 17.9645 25.6194 17.9645 25.3062V21.0546C17.9645 20.272 18.4379 19.6459 19.3034 19.6459C20.1695 19.6459 20.6428 20.272 20.6428 21.0546V25.4497C20.6428 27.0409 19.4794 28.306 17.2883 28.306Z" fill="#D62300"/>
<path fill-rule="evenodd" clip-rule="evenodd" d="M8.50805 28.2411H10.4151C12.2141 28.2411 13.3097 27.0806 13.3097 25.6326C13.3097 24.507 12.6352 23.97 12.4464 23.8197L12.4302 23.8067C12.3629 23.7546 12.2953 23.7022 12.2953 23.6502C12.2953 23.5992 12.3202 23.5722 12.3634 23.5254C12.3754 23.5123 12.3889 23.4977 12.4036 23.4807C12.6605 23.1936 12.9175 22.7373 12.9175 22.0721C12.9175 20.5071 11.8219 19.6722 10.1177 19.6722H8.50805C7.43965 19.6722 6.92554 20.2724 6.92554 21.0809V26.8325C6.92554 27.6412 7.43965 28.2411 8.50805 28.2411ZM9.64436 23.1026C9.41432 23.1026 9.30596 22.9722 9.30596 22.8025V21.9155C9.30596 21.746 9.41432 21.6156 9.64436 21.6156H9.82007C10.4015 21.6156 10.5775 22.0069 10.5775 22.346C10.5775 22.6589 10.4015 23.1026 9.82007 23.1026H9.64436ZM9.64436 24.6676H9.88769C10.5368 24.6676 10.7263 25.085 10.7263 25.4632C10.7263 25.8023 10.5368 26.2849 9.88769 26.2849H9.64436C9.41432 26.2849 9.30596 26.1543 9.30596 25.9849V24.9674C9.30596 24.7979 9.41432 24.6676 9.64436 24.6676Z" fill="#D62300"/>
<path fill-rule="evenodd" clip-rule="evenodd" d="M21.5076 26.8977C21.5076 27.6802 21.9809 28.3064 22.8467 28.3064C23.7123 28.3064 24.1857 27.6802 24.1857 26.8977V25.5153C24.1857 25.3458 24.2668 25.2675 24.4021 25.2675C24.5642 25.2675 24.6183 25.3589 24.6454 25.5153C24.7671 26.1804 25.0916 27.0806 25.4572 27.5369C25.9169 28.1239 26.3496 28.3064 26.7825 28.3064C27.4859 28.3064 28.0945 27.7716 28.0945 27.1064C28.0945 26.6631 27.9053 26.3371 27.6616 26.0369L27.5998 25.9588C27.2327 25.4959 26.9084 25.0868 26.7417 24.6545C26.7013 24.5502 26.7282 24.4589 26.8501 24.3675C27.2695 24.0545 27.7561 23.3632 27.7561 22.2677C27.7561 20.6113 26.336 19.6722 24.6183 19.6722H23.0901C22.0214 19.6722 21.5076 20.2724 21.5076 21.0809V26.8977ZM24.3749 23.3241C24.1449 23.3241 24.0368 23.1936 24.0368 23.0243V22.1372C24.0368 21.9679 24.1449 21.8375 24.3749 21.8375H24.5642C25.1324 21.8375 25.3081 22.2286 25.3081 22.5678C25.3081 22.8939 25.1324 23.3241 24.5642 23.3241H24.3749Z" fill="#D62300"/>
<path fill-rule="evenodd" clip-rule="evenodd" d="M42.4856 26.8977C42.4856 27.6802 42.9589 28.3064 43.8248 28.3064C44.6903 28.3064 45.1636 27.6802 45.1636 26.8977V25.5153C45.1636 25.3458 45.2449 25.2675 45.3801 25.2675C45.5423 25.2675 45.5966 25.3589 45.6234 25.5153C45.7454 26.1804 46.0699 27.0806 46.4352 27.5369C46.895 28.1239 47.3279 28.3064 47.7605 28.3064C48.4639 28.3064 49.0729 27.7716 49.0729 27.1064C49.0729 26.6631 48.8833 26.3371 48.6396 26.0369C48.1798 25.4762 47.8957 25.1109 47.7201 24.6545C47.6794 24.5502 47.7065 24.4589 47.8281 24.3675C48.2475 24.0545 48.7344 23.3632 48.7344 22.2677C48.7344 20.6113 47.3143 19.6722 45.5966 19.6722H44.0681C42.9994 19.6722 42.4856 20.2724 42.4856 21.0809V26.8977ZM45.3532 23.3241C45.1232 23.3241 45.0149 23.1936 45.0149 23.0243V22.1372C45.0149 21.9679 45.1232 21.8375 45.3532 21.8375H45.5423C46.1104 21.8375 46.2864 22.2286 46.2864 22.5678C46.2864 22.8939 46.1104 23.3241 45.5423 23.3241H45.3532Z" fill="#D62300"/>
<path d="M40.2393 24.9805H39.3063C39.0764 24.9805 38.9681 25.1109 38.9681 25.2807V25.5284C38.9681 25.6978 39.0764 25.8285 39.3063 25.8285H40.5238C41.2809 25.8285 41.8761 26.2588 41.8761 27.0282C41.8761 27.8109 41.2809 28.2411 40.5238 28.2411H37.9673C36.8989 28.2411 36.3848 27.6412 36.3848 26.8325V21.0809C36.3848 20.2724 36.8989 19.6722 37.9673 19.6722H40.5238C41.2809 19.6722 41.8761 20.1027 41.8761 20.8721C41.8761 21.6546 41.2809 22.0852 40.5238 22.0852H39.3063C39.0764 22.0852 38.9681 22.2155 38.9681 22.385V22.594C38.9681 22.7634 39.0764 22.8939 39.3063 22.8939H40.2393C40.8887 22.8939 41.4028 23.272 41.4028 23.9372C41.4028 24.6024 40.8887 24.9805 40.2393 24.9805Z" fill="#D62300"/>
<path d="M34.9254 20.2979C34.3572 19.8936 33.559 19.5934 32.3687 19.5934C30.2723 19.5934 28.2297 20.9238 28.2297 24.002C28.2297 26.9493 30.2723 28.319 32.2877 28.319C34.4112 28.319 35.7502 27.0146 35.7502 25.1105C35.7502 23.8974 34.9926 23.0628 33.4778 23.0628H33.0449C32.2473 23.0628 31.6248 23.4282 31.6248 24.2497C31.6248 24.9801 32.2877 25.3323 32.7883 25.3323C33.0449 25.3323 33.2073 25.4106 33.2073 25.5931C33.2073 25.828 32.9232 25.9844 32.5987 25.9844C31.5843 25.9844 30.8945 25.2933 30.8945 24.002C30.8945 22.5674 31.8412 22.0457 32.5715 22.0457C33.058 22.0457 33.3237 22.1774 33.5653 22.2973C33.7671 22.3973 33.9522 22.4891 34.2353 22.4891C34.9519 22.4891 35.4392 21.9151 35.4392 21.3153C35.4392 20.8717 35.2364 20.5328 34.9254 20.2979Z" fill="#D62300"/>
<path d="M11.297 37.5393V39.3708C11.297 40.6351 10.5192 41.654 9.11128 41.654C7.68965 41.654 6.92554 40.6351 6.92554 39.3708V31.4253C6.92554 30.1611 7.68965 29.1419 9.11128 29.1419C10.5192 29.1419 11.297 30.1611 11.297 31.4253V32.7151C11.297 32.8827 11.3638 32.986 11.5248 32.986C11.6188 32.986 11.6858 32.9601 11.8064 32.844C12.2892 32.3927 13.0401 31.2574 13.6704 30.2771C14.1397 29.5418 14.837 29.1419 15.5742 29.1419C16.7277 29.1419 17.7869 30.0192 17.7869 31.1414C17.7869 31.5799 17.6259 32.1087 17.2371 32.6891C16.7277 33.4504 15.8023 34.2885 15.427 34.6242C15.2659 34.7659 15.1855 34.8692 15.1855 35.0108C15.1855 35.0627 15.1989 35.1787 15.3198 35.3592C15.6416 35.8365 16.5262 36.8684 17.2775 37.6553C17.8674 38.2746 18.1757 38.7904 18.1757 39.4869C18.1757 40.6092 17.1299 41.654 15.8828 41.654C15.1453 41.654 14.4479 41.28 13.885 40.6866C13.0536 39.7964 12.1551 38.2872 11.8465 37.5778C11.8384 37.5621 11.8302 37.5438 11.8214 37.5243C11.773 37.4164 11.7065 37.2683 11.5248 37.2683C11.3638 37.2683 11.297 37.3843 11.297 37.5393Z" fill="#D62300"/>
<path d="M29.7125 36.6234V39.4097C29.7125 40.6608 28.9527 41.654 27.5546 41.654C26.157 41.654 25.397 40.6608 25.397 39.4097V31.4379C25.397 30.1611 26.1842 29.1419 27.609 29.1419C28.4642 29.1419 29.2103 29.4517 29.9296 30.7801L31.8159 34.2628C31.9109 34.4434 31.9924 34.5079 32.1012 34.5079C32.2505 34.5079 32.3317 34.4048 32.3317 34.1728V31.3864C32.3317 30.1352 33.0916 29.1419 34.4895 29.1419C35.8875 29.1419 36.6472 30.1352 36.6472 31.3864V39.3579C36.6472 40.6351 35.8602 41.654 34.435 41.654C33.6075 41.654 32.8339 41.3445 32.1148 40.0158L30.228 36.533C30.1335 36.3525 30.052 36.288 29.9432 36.288C29.7939 36.288 29.7125 36.3914 29.7125 36.6234Z" fill="#D62300"/>
<path d="M47.8323 30.1492C47.0105 29.5681 45.7709 29.1419 44.0193 29.1419C40.88 29.1419 37.8218 31.04 37.8218 35.4561C37.8218 39.6786 40.88 41.654 43.8981 41.654C47.0643 41.654 49.0719 39.7818 49.0719 37.0444C49.0719 35.3141 47.9403 34.1131 45.6632 34.1131H45.003C43.8174 34.1131 42.9012 34.6425 42.9012 35.8046C42.9012 36.8635 43.8981 37.3672 44.6393 37.3672C45.003 37.3672 45.2591 37.4704 45.2591 37.7416C45.2591 38.0774 44.8279 38.2967 44.3699 38.2967C42.8471 38.2967 41.8099 37.3027 41.8099 35.4561C41.8099 33.403 43.2248 32.6542 44.3161 32.6542C45.0429 32.6542 45.4377 32.846 45.7969 33.0205C46.0968 33.1662 46.372 33.2998 46.7949 33.2998C47.8727 33.2998 48.6001 32.4605 48.6001 31.6084C48.6001 30.9757 48.3038 30.485 47.8323 30.1492Z" fill="#D62300"/>
<path d="M21.5352 29.1419C23.0567 29.1419 23.8858 30.2256 23.8858 31.5799V39.2163C23.8858 40.5706 23.0567 41.654 21.5352 41.654C20.0133 41.654 19.1843 40.5706 19.1843 39.2163V31.5799C19.1843 30.2256 20.0133 29.1419 21.5352 29.1419Z" fill="#D62300"/>
</svg>
